# xmcd
#
# Track frame offsets: 
#        150
#        26670
#        37202
#        54355
#        68135
#        90225
#        102630
#        129982
#        181445
#        207102
#        246520
#        287875
#
# Disc length: 4368 seconds
#
# Revision: 0
# Processed by: cddbd v1.5.2PL0 Copyright (c) Steve Scherf et al.
# Submitted via: ExactAudioCopy v0.95b4
#
DISCID=af110e0c
DTITLE=Ritchie (sop), Soames (cl), Purvis (pno), Mühlfeld Ensemble - S
DTITLE=imon Hermstedt ~ works by Spohr, Mozart, Müller and Paer
DYEAR=1993
DGENRE=Classical
TTITLE0=Spohr Sechs deutsche Lieder Op.103- 1.Sei still mein Herz
TTITLE1=Spohr Sechs deutsche Lieder Op.103- 2.Zwiegesang
TTITLE2=Spohr Sechs deutsche Lieder Op.103- 3.Sehnsucht
TTITLE3=Spohr Sechs deutsche Lieder Op.103- 4.Wiegenlied
TTITLE4=Spohr Sechs deutsche Lieder Op.103- 5.Das heimliche Lied
TTITLE5=Spohr Sechs deutsche Lieder Op.103- 6.Wach auf
TTITLE6=Mozart Aria from <La Clemenza di Tito> arr W.Bergmann- 'Parto!
TTITLE6=Parto!'
TTITLE7=Müller Second Quartet in E minor- I.Allegro moderato ma con sp
TTITLE7=irito
TTITLE8=Müller Second Quartet in E minor- II.Tema con Variazioni 1~4
TTITLE9=Spohr Theme and Variations from the opera <Alruna, die Eulenkö
TTITLE9=nigin>
TTITLE10=Paer 'Una voce al cor mi parla' from the opera <Sargino, ossi
TTITLE10=a L'allievo dell'amore> arr Weston and Voxman
TTITLE11=Spohr Recitative and Aria 'Ich bin allein' from the opera <Fa
TTITLE11=ust>
EXTD=
EXTT0=
EXTT1=
EXTT2=
EXTT3=
EXTT4=
EXTT5=
EXTT6=
EXTT7=
EXTT8=
EXTT9=
EXTT10=
EXTT11=
PLAYORDER=
